<svg xmlns="http://www.w3.org/2000/svg" xmlns:xlink="http://www.w3.org/1999/xlink" width="500" zoomAndPan="magnify" viewBox="0 0 375 374.999991" height="500" preserveAspectRatio="xMidYMid meet" version="1.0"><defs><g/></defs><g fill="#ffffff" fill-opacity="1"><g transform="translate(8.093746, 220.124986)"><g><path d="M 42.046875 0 L 22.28125 -20.984375 L 16.125 -14.734375 L 16.125 0 L 2.59375 0 L 2.59375 -56.34375 L 16.125 -56.34375 L 16.125 -33.890625 L 38.578125 -56.34375 L 57.734375 -56.34375 L 31.90625 -30.59375 L 61.203125 0 Z M 42.046875 0 "/></g></g></g><g fill="#ffffff" fill-opacity="1"><g transform="translate(70.159218, 220.124986)"><g><path d="M 45.859375 0 L 41.78125 -7.890625 L 20.546875 -7.890625 L 16.46875 0 L 0.859375 0 L 31.203125 -56.34375 L 61.46875 0 Z M 36.328125 -18.46875 L 31.203125 -28.34375 L 26 -18.46875 Z M 36.328125 -18.46875 "/></g></g></g><g fill="#ffffff" fill-opacity="1"><g transform="translate(132.484745, 220.124986)"><g><path d="M 39.4375 -56.34375 L 52.96875 -56.34375 L 52.96875 0 L 15.609375 -27.484375 L 15.609375 0 L 2.078125 0 L 2.078125 -56.34375 L 39.4375 -27.5625 Z M 39.4375 -56.34375 "/></g></g></g><g fill="#ffffff" fill-opacity="1"><g transform="translate(187.528843, 220.124986)"><g><path d="M 45.078125 -31.546875 C 46.234375 -31.035156 47.390625 -30 48.546875 -28.4375 C 50.859375 -25.375 52.015625 -21.296875 52.015625 -16.203125 C 52.015625 -10.023438 49.328125 -5.460938 43.953125 -2.515625 C 41.234375 -1.066406 38.515625 -0.226562 35.796875 0 L 5.203125 0 L 5.203125 -56.34375 L 31.296875 -56.34375 C 33.429688 -56.34375 35.710938 -55.878906 38.140625 -54.953125 C 42.941406 -53.109375 46.003906 -49.90625 47.328125 -45.34375 C 48.316406 -42.039062 48.234375 -38.742188 47.078125 -35.453125 C 46.492188 -33.835938 45.828125 -32.535156 45.078125 -31.546875 Z M 18.71875 -45.859375 L 18.71875 -33.28125 L 30.78125 -33.28125 C 32.507812 -33.28125 34.007812 -33.890625 35.28125 -35.109375 C 36.5 -36.316406 37.109375 -37.789062 37.109375 -39.53125 C 37.109375 -41.320312 36.5 -42.820312 35.28125 -44.03125 C 34.007812 -45.25 32.507812 -45.859375 30.78125 -45.859375 Z M 41.4375 -16.640625 C 41.4375 -18.378906 40.828125 -19.882812 39.609375 -21.15625 C 38.398438 -22.363281 36.925781 -22.96875 35.1875 -22.96875 L 18.71875 -22.96875 L 18.71875 -10.40625 L 35.1875 -10.40625 C 36.925781 -10.40625 38.398438 -11.007812 39.609375 -12.21875 C 40.828125 -13.4375 41.4375 -14.910156 41.4375 -16.640625 Z M 41.4375 -16.640625 "/></g></g></g><g fill="#ffffff" fill-opacity="1"><g transform="translate(242.139531, 220.124986)"><g><path d="M 30.34375 -56.09375 C 38.375 -56.09375 45.222656 -53.257812 50.890625 -47.59375 C 56.546875 -41.925781 59.375 -35.078125 59.375 -27.046875 C 59.375 -19.015625 56.546875 -12.164062 50.890625 -6.5 C 45.222656 -0.832031 38.375 2 30.34375 2 C 22.3125 2 15.460938 -0.832031 9.796875 -6.5 C 4.128906 -12.164062 1.296875 -19.015625 1.296875 -27.046875 C 1.296875 -35.078125 4.128906 -41.925781 9.796875 -47.59375 C 15.460938 -53.257812 22.3125 -56.09375 30.34375 -56.09375 Z M 42.296875 -15.078125 C 45.597656 -18.378906 47.25 -22.367188 47.25 -27.046875 C 47.25 -31.722656 45.597656 -35.710938 42.296875 -39.015625 C 39.003906 -42.304688 35.019531 -43.953125 30.34375 -43.953125 C 25.65625 -43.953125 21.664062 -42.304688 18.375 -39.015625 C 15.082031 -35.710938 13.4375 -31.722656 13.4375 -27.046875 C 13.4375 -22.367188 15.082031 -18.378906 18.375 -15.078125 C 21.789062 -11.785156 25.78125 -10.140625 30.34375 -10.140625 C 34.90625 -10.140625 38.890625 -11.785156 42.296875 -15.078125 Z M 42.296875 -15.078125 "/></g></g></g><g fill="#ffffff" fill-opacity="1"><g transform="translate(302.81807, 220.124986)"><g><path d="M 61.46875 -56.34375 L 38.75 -29.125 L 38.75 0 L 25.21875 0 L 25.21875 -29.125 L 2.59375 -56.34375 L 20.375 -56.34375 L 32.078125 -42.21875 L 43.6875 -56.34375 Z M 61.46875 -56.34375 "/></g></g></g></svg>